:SAMPLES-PER-SECOND 30
:FULLY-SPECIFIED
:DEGREES
568
root  -55.0311 39.2761 -13.6412 -161.946 -52.2362 162.375
RightUpLeg  -24.7767 1.43433 -17.2986
RightLeg  28.9929 6.68353 3.77075
RightFoot  -5.2364 -0.242975 3.8888
RightToes  -1.74624e-010 0 -3.6325e-017
Spine  18.2996 -2.25912 19.401
Spine1  -3.60068 2.68304 -14.693
HEad  -45.402 -53.814 20.4475
LeftShoulder1  0.525532 1.88358 -26.2466
LeftArm  -3.3012 15.944 -40.0099
LeftForeArm  36.0885 -40.8479 -7.34639
LeftHand  -0.0354607 3.88274 1.05315
RightShoulder  0.13395 -6.64314 -14.3597
RightArm  -61.2768 40.4572 -14.3418
RightForeArm  13.5615 13.7484 -4.71543
RightHand  -0.956629 12.0171 -6.74752
LeftUpLeg  -8.95765 -1.68542 -5.32585
LeftLeg  18.4856 -4.16277 -1.15651
LeftFoot  -11.1693 0.0663222 0.523305
LeftToes  -3.96543e-010 8.93632e-011 -2.58531e-011
569
root  -55.1849 39.3772 -14.0792 -160.612 -52.2404 161.835
RightUpLeg  -25.0389 1.5745 -17.2108
RightLeg  28.9321 6.16324 3.45212
RightFoot  -5.52894 -0.227397 3.73611
RightToes  -1.74624e-010 0 -3.6325e-017
Spine  17.9892 -2.35088 19.3475
Spine1  -3.12762 2.56588 -14.5364
HEad  -46.193 -52.5449 20.9029
LeftShoulder1  0.545962 1.81592 -26.1516
LeftArm  -2.94302 16.2156 -40.4065
LeftForeArm  36.8971 -39.6069 -6.94437
LeftHand  -0.0142245 3.93968 -0.604952
RightShoulder  0.113229 -6.97289 -13.2553
RightArm  -77.6301 37.2132 -14.2065
RightForeArm  27.9559 23.3209 2.08251
RightHand  -1.2819 12.8747 -8.5519
LeftUpLeg  -8.67482 -0.608772 -5.33401
LeftLeg  17.1206 -4.00689 -0.983145
LeftFoot  -10.3241 0.0642338 -0.164098
LeftToes  -3.96543e-010 8.93632e-011 -2.58531e-011
570
root  -55.368 39.5067 -14.4932 -159.769 -51.6627 161.405
RightUpLeg  -24.9621 1.91581 -17.2135
RightLeg  28.6693 5.97275 3.30283
RightFoot  -5.5614 -0.179858 2.81248
RightToes  -1.74624e-010 0 -3.6325e-017
Spine  18.2401 -2.31731 19.0144
Spine1  -2.98526 2.52459 -13.9539
HEad  -45.7172 -52.2184 19.6239
LeftShoulder1  0.459303 2.09606 -26.4361
LeftArm  -0.917465 15.3343 -40.442
LeftForeArm  34.3592 -36.5365 -6.23769
LeftHand  -0.0319248 4.20646 0.923703
RightShoulder  0.0686861 -7.16039 -11.6763
RightArm  -78.3347 34.3636 -13.0072
RightForeArm  31.2073 36.7514 6.68764
RightHand  -1.26854 12.2319 -8.71422
LeftUpLeg  -7.5403 1.01303 -5.46551
LeftLeg  14.9349 -3.58377 -0.834827
LeftFoot  -9.13361 0.0745532 -1.04979
LeftToes  -3.96543e-010 8.93632e-011 -2.58531e-011
571
root  -55.4776 39.5974 -14.8447 -158.767 -51.9417 161.358
RightUpLeg  -25.109 1.61628 -16.7749
RightLeg  28.1656 5.67876 3.06407
RightFoot  -5.70304 -0.166445 2.59695
RightToes  -1.74624e-010 0 -3.6325e-017
Spine  17.9443 -2.27511 18.9985
Spine1  -3.04639 2.34255 -12.8929
HEad  -44.916 -52.051 17.7354
LeftShoulder1  0.467123 2.11819 -27.5705
LeftArm  1.21901 14.8995 -39.7463
LeftForeArm  32.9238 -34.6384 -5.82635
LeftHand  -0.0253988 4.63994 0.0261472
RightShoulder  0.051962 -7.03099 -11.1589
RightArm  -76.9951 30.5992 -10.7213
RightForeArm  33.0664 52.3487 12.1249
RightHand  -1.56545 12.7633 -10.4148
LeftUpLeg  -7.48936 2.53099 -5.01453
LeftLeg  13.5605 -3.46403 -1.13666
LeftFoot  -8.24878 0.0962456 -1.72134
LeftToes  -3.96543e-010 8.93632e-011 -2.58531e-011
572
root  -55.5893 39.6832 -15.1643 -157.652 -52.1409 161.141
RightUpLeg  -25.2098 1.33839 -16.5201
RightLeg  27.5239 5.49536 2.87869
RightFoot  -5.89374 -0.147395 2.29015
RightToes  -1.74624e-010 0 -3.6325e-017
Spine  17.4322 -2.63048 18.9561
Spine1  -2.78166 1.91409 -12.8911
HEad  -44.2078 -51.0715 16.9763
LeftShoulder1  0.408599 2.25376 -26.5004
LeftArm  0.526532 15.9659 -40.7594
LeftForeArm  33.6293 -34.2507 -5.69033
LeftHand  -0.0251807 4.89063 -0.178328
RightShoulder  -0.0529179 -7.09414 -8.18242
RightArm  -78.7516 29.2842 -10.2
RightForeArm  42.4472 66.8669 22.1395
RightHand  -1.54923 10.6004 -11.5682
LeftUpLeg  -7.3309 2.89523 -4.87128
LeftLeg  12.0237 -1.75395 -0.980737
LeftFoot  -7.41225 0.136871 -2.69491
LeftToes  -3.96543e-010 8.93632e-011 -2.58531e-011
573
root  -55.699 39.7772 -15.4373 -157.199 -52.669 161.467
RightUpLeg  -24.8525 0.779626 -15.8238
RightLeg  26.5204 5.46633 2.73935
RightFoot  -5.88712 -0.149676 2.2987
RightToes  -1.74624e-010 0 -3.6325e-017
Spine  16.0726 -3.47889 20.5301
Spine1  -0.701209 1.70225 -15.5627
HEad  -45.0661 -49.8297 19.1499
LeftShoulder1  0.354113 2.27782 -22.5459
LeftArm  -1.66318 16.9924 -43.9944
LeftForeArm  34.5859 -34.4063 -5.67573
LeftHand  -0.0252769 5.04085 0.107302
RightShoulder  -0.289006 -8.10643 -2.36658
RightArm  -82.5607 30.2389 -13.0185
RightForeArm  62.1709 76.3509 41.539
RightHand  -1.6852 10.6603 -12.5162
LeftUpLeg  -7.1459 3.21454 -4.37197
LeftLeg  10.8394 -0.10988 -0.876735
LeftFoot  -6.65234 0.184739 -3.53833
LeftToes  -3.96543e-010 8.93632e-011 -2.58531e-011
574
root  -55.787 39.8358 -15.6512 -156.938 -52.7075 161.795
RightUpLeg  -24.7041 0.516685 -15.3193
RightLeg  25.8027 5.47922 2.66124
RightFoot  -5.98746 -0.129743 1.90421
RightToes  -1.74624e-010 0 -3.6325e-017
Spine  16.2838 -3.17017 20.6817
Spine1  -0.952762 1.93526 -14.8694
HEad  -44.1733 -48.7392 18.0018
LeftShoulder1  0.358132 2.30673 -23.4995
LeftArm  -0.624875 16.7919 -43.4703
LeftForeArm  34.7224 -34.4104 -5.6691
LeftHand  -0.0271436 5.05865 -0.742383
RightShoulder  -0.287842 -8.14307 -2.69573
RightArm  -83.208 28.549 -11.2249
RightForeArm  101.881 80.7628 81.3079
RightHand  -1.74753 10.8231 -12.8333
LeftUpLeg  -6.98946 3.66176 -4.10154
LeftLeg  9.99945 2.01755 -0.811121
LeftFoot  -6.03724 0.236934 -4.33547
LeftToes  -3.96543e-010 8.93632e-011 -2.58531e-011
575
root  -55.8438 39.9021 -15.8239 -156.45 -52.9899 161.819
RightUpLeg  -24.412 0.472497 -15.0301
RightLeg  24.8798 5.16703 2.39454
RightFoot  -6.03058 -0.107749 1.41879
RightToes  -1.74624e-010 0 -3.6325e-017
Spine  17.0142 -2.39391 19.9977
Spine1  -2.58083 2.14558 -12.3647
HEad  -41.8722 -48.8809 15.0156
LeftShoulder1  0.441471 2.16143 -26.7624
LeftArm  1.24586 16.4966 -41.3109
LeftForeArm  33.7889 -34.5724 -5.76276
LeftHand  -0.0260274 4.95214 -0.280074
RightShoulder  -0.133958 -7.17672 -5.37106
RightArm  -81.5525 25.5315 -7.64325
RightForeArm  135.461 79.6797 117.352
RightHand  -1.88477 10.8551 -13.7831
LeftUpLeg  -7.07154 3.60717 -4.09681
LeftLeg  9.40402 3.98464 -0.535946
LeftFoot  -5.30849 0.286911 -4.83895
LeftToes  -3.96543e-010 8.93632e-011 -2.58531e-011
576
root  -55.9258 39.9944 -15.9471 -156.155 -53.9547 161.766
RightUpLeg  -23.4012 -0.513244 -14.5806
RightLeg  23.5136 5.29432 2.30045
RightFoot  -5.93627 -0.118007 1.53083
RightToes  -1.74624e-010 0 -3.6325e-017
Spine  16.531 -2.30723 20.5304
Spine1  -2.11248 2.21603 -12.1794
HEad  -39.9194 -47.6028 13.1535
LeftShoulder1  0.396182 2.32599 -27.4705
LeftArm  1.23911 15.9533 -41.1913
LeftForeArm  34.0152 -35.1833 -5.90482
LeftHand  -0.0278741 5.01613 0.429227
RightShoulder  -0.183597 -7.26359 -4.0771
RightArm  -81.1754 24.9052 -7.72498
RightForeArm  144.369 78.2698 127.892
RightHand  -1.76127 11.7295 -12.2703
LeftUpLeg  -7.29656 3.90998 -3.97807
LeftLeg  9.6078 4.79959 -0.307171
LeftFoot  -4.43552 0.347056 -5.31141
LeftToes  -3.96543e-010 8.93632e-011 -2.58531e-011
577
root  -56.0078 40.1082 -16.0246 -156.264 -55.285 161.468
RightUpLeg  -21.6011 -2.45384 -14.1432
RightLeg  22.0422 6.07773 2.49241
RightFoot  -5.793 -0.113582 1.45722
RightToes  -1.74624e-010 0 -3.6325e-017
Spine  15.7895 -2.29799 21.4486
Spine1  -0.724614 2.36983 -12.4744
HEad  -37.385 -45.1653 10.3504
LeftShoulder1  0.365576 2.43608 -28.0837
LeftArm  1.47738 14.766 -41.0679
LeftForeArm  33.8982 -36.0307 -6.13411
LeftHand  -0.0270115 4.77385 0.798593
RightShoulder  -0.25241 -7.2867 -1.97039
RightArm  -79.2072 24.0216 -7.21698
RightForeArm  145.756 77.4638 131.721
RightHand  -1.66879 11.2258 -12.1117
LeftUpLeg  -7.27173 4.8691 -3.8756
LeftLeg  10.548 3.88814 -0.272786
LeftFoot  -3.5482 0.430132 -5.98903
LeftToes  -3.96543e-010 8.93632e-011 -2.58531e-011
578
root  -56.0714 40.204 -16.0945 -156.217 -57.3708 161.082
RightUpLeg  -19.7381 -4.34374 -13.5811
RightLeg  20.6614 6.17354 2.34735
RightFoot  -5.85698 -0.130395 1.75537
RightToes  -1.74624e-010 0 -3.6325e-017
Spine  15.6034 -2.44969 21.8473
Spine1  -0.947221 2.06615 -11.9739
HEad  -33.6534 -44.8332 6.20559
LeftShoulder1  0.23261 2.82867 -28.3778
LeftArm  1.46408 14.6609 -41.0785
LeftForeArm  34.2305 -37.8555 -6.60305
LeftHand  -0.028049 4.50759 0.492738
RightShoulder  -0.316182 -6.68979 1.60095
RightArm  -74.811 23.6016 -6.64206
RightForeArm  144.112 77.2649 132.11
RightHand  -1.46603 7.66521 -13.2645
LeftUpLeg  -7.90436 6.85772 -3.63627
LeftLeg  12.7925 0.464446 -0.509201
LeftFoot  -3.2927 0.549935 -7.55261
LeftToes  -3.96543e-010 8.93632e-011 -2.58531e-011
579
root  -56.1079 40.285 -16.1629 -155.699 -59.9172 160.524
RightUpLeg  -18.1437 -6.76783 -12.8535
RightLeg  19.3077 6.3621 2.09976
RightFoot  -5.77949 -0.122881 1.72768
RightToes  -1.74624e-010 0 -3.6325e-017
Spine  14.6756 -2.16334 22.0075
Spine1  -0.69572 2.04488 -11.1218
HEad  -28.914 -41.8815 1.52259
LeftShoulder1  0.0750415 3.29297 -29.2526
LeftArm  2.23312 13.8062 -40.7939
LeftForeArm  33.7604 -39.3049 -7.03997
LeftHand  -0.0299091 4.2912 0.762831
RightShoulder  -0.371377 -6.36483 4.99055
RightArm  -68.5514 21.9438 -4.40046
RightForeArm  137.079 77.7897 128.117
RightHand  -1.45382 7.79361 -12.9173
LeftUpLeg  -9.62078 9.03982 -3.3581
LeftLeg  16.5808 -2.9625 -0.774049
LeftFoot  -3.86118 0.604039 -8.8665
LeftToes  -3.96543e-010 8.93632e-011 -2.58531e-011
